<?xml version="1.0" encoding="UTF-8" standalone="no"?>
<!-- Generator: Adobe Illustrator 16.0.0, SVG Export Plug-In . SVG Version: 6.00 Build 0)  -->

<svg
   xmlns:dc="http://purl.org/dc/elements/1.1/"
   xmlns:cc="http://creativecommons.org/ns#"
   xmlns:rdf="http://www.w3.org/1999/02/22-rdf-syntax-ns#"
   xmlns:svg="http://www.w3.org/2000/svg"
   xmlns="http://www.w3.org/2000/svg"
   xmlns:sodipodi="http://sodipodi.sourceforge.net/DTD/sodipodi-0.dtd"
   xmlns:inkscape="http://www.inkscape.org/namespaces/inkscape"
   version="1.1"
   id="Ebene_1"
   x="0px"
   y="0px"
   width="1000"
   height="1000"
   viewBox="0 0 1000 1000"
   enable-background="new 0 0 1500 1500"
   xml:space="preserve"
   inkscape:version="0.91 r13725"
   sodipodi:docname="favicon.svg"><metadata
     id="metadata15"><rdf:RDF><cc:Work
         rdf:about=""><dc:format>image/svg+xml</dc:format><dc:type
           rdf:resource="http://purl.org/dc/dcmitype/StillImage" /><dc:title></dc:title></cc:Work></rdf:RDF></metadata><defs
     id="defs13" /><sodipodi:namedview
     pagecolor="#ffffff"
     bordercolor="#666666"
     borderopacity="1"
     objecttolerance="10"
     gridtolerance="10"
     guidetolerance="10"
     inkscape:pageopacity="0"
     inkscape:pageshadow="2"
     inkscape:window-width="2880"
     inkscape:window-height="1749"
     id="namedview11"
     showgrid="false"
     inkscape:zoom="1.2586667"
     inkscape:cx="623.73219"
     inkscape:cy="501.87233"
     inkscape:window-x="0"
     inkscape:window-y="51"
     inkscape:window-maximized="1"
     inkscape:current-layer="Ebene_1" /><path
     d="m 824.09242,331.49908 c -0.5363,-1.743 -1.4749,-3.55303 -2.6816,-5.4301 -10.2568,-25.74271 -37.6755,-43.77601 -59.9992,-55.37364 -32.5136,-16.89365 -72.6025,-19.64222 -105.1831,-11.7317 -26.3461,6.43568 -41.8319,19.57518 -62.0775,37.00514 5.9664,7.77644 11.5306,15.82104 16.4244,24.20083 38.6141,66.23383 57.787,131.52913 57.3848,194.94736 22.0556,-18.97183 51.4183,-23.53044 55.977,-24.20082 0,0 0,0 0,0 0,0 0.2681,-0.067 0.5363,-0.067 0.067,0 0.134,0 0.134,0 0,0 0.067,0 0.067,0 0.5363,-0.067 1.3407,-0.26815 2.5474,-0.53631 0.4693,-0.13407 1.1397,-0.33519 1.743,-0.46926 0.4023,-0.13408 0.8045,-0.26816 1.2738,-0.40223 0,0 0,0 0,0 0.8044,-0.26816 1.7429,-0.60335 2.7485,-1.00558 0.067,0 0.1341,-0.067 0.1341,-0.067 6.9049,-2.61449 17.6311,-7.91052 32.1113,-18.77072 32.5136,-24.40194 46.4576,-52.42395 56.7144,-83.86491 4.7598,-14.3462 8.648,-33.72026 2.1453,-54.23398 m -9.1843,51.88764 c -8.849,27.21755 -21.5863,55.77586 -54.0999,80.1778 -7.6423,5.69826 -14.2121,9.78759 -19.5752,12.73728 0,0 0.067,-0.067 0.067,-0.067 3.486,-4.5586 7.2401,-9.92167 11.0613,-16.02215 0.2011,-0.26816 0.4022,-0.60335 0.6033,-0.93854 1.8101,-2.94968 3.6201,-6.10048 5.4301,-9.38536 0.2012,-0.33519 0.3352,-0.73742 0.5363,-1.07261 1.609,-3.01673 3.1508,-6.16753 4.6927,-9.38536 0.2011,-0.46927 0.4693,-0.93854 0.6704,-1.47485 1.5419,-3.41895 3.0167,-7.03902 4.3575,-10.65909 0.2681,-0.73742 0.5363,-1.47484 0.7374,-2.21226 1.2067,-3.41895 2.3464,-6.97198 3.2849,-10.59205 0.1341,-0.46927 0.2681,-0.8715 0.3352,-1.34077 1.0056,-3.88822 1.81,-7.84348 2.5474,-11.93281 0.1341,-0.93854 0.2682,-1.87708 0.4023,-2.81561 0.6033,-4.15638 1.0726,-8.44683 1.2737,-12.80432 2.6145,-10.79316 -3.8212,-21.78744 -14.6144,-24.67009 -6.7708,-1.81003 -13.6087,0.067 -18.5696,4.29045 -1.2066,1.81004 -2.1452,3.82118 -2.7485,6.10049 -2.8827,10.92724 3.62,22.12263 14.5473,25.00528 4.4915,1.20669 8.9831,0.73742 12.9384,-0.8715 -0.6034,4.35749 -1.4749,8.58091 -2.4804,12.73728 -0.2012,0.80446 -0.3352,1.54188 -0.5364,2.34634 -1.0055,3.95526 -2.2122,7.77644 -3.553,11.53059 -0.2681,0.73742 -0.5363,1.47484 -0.8044,2.2793 -1.4078,3.68711 -2.8156,7.30717 -4.4246,10.72613 -0.067,0.13407 -0.134,0.26815 -0.2011,0.40223 -1.6759,3.55303 -3.4189,6.90494 -5.1619,10.18982 -0.3352,0.67038 -0.7375,1.34076 -1.0726,2.01115 -1.743,3.08376 -3.486,6.03344 -5.2961,8.84905 -0.3352,0.60335 -0.7374,1.13965 -1.0726,1.67596 -1.743,2.74857 -3.553,5.36306 -5.229,7.77644 -0.067,0.067 -0.134,0.20112 -0.2011,0.26815 -1.81,2.54746 -3.6201,4.8938 -5.296,7.03903 -0.2682,0.33519 -0.5363,0.67038 -0.7374,0.93853 -1.676,2.07819 -3.1508,3.95526 -4.5586,5.56418 0,0.067 -0.067,0.067 -0.067,0.13408 -13.3406,-39.82075 -19.24,-79.70854 -15.3517,-105.85347 2.2793,-15.61993 8.3127,-57.11663 38.614,-66.97126 4.0894,-1.34077 8.5809,-2.01115 13.2066,-2.01115 24.9382,0 49.2061,18.83776 52.2898,28.62535 4.7598,14.81547 4.0894,31.10577 -1.9441,49.67538"
     id="path3"
     inkscape:connector-curvature="0" /><path
     d="M 598.30742,757.46042 C 533.28022,643.16012 438.55514,605.01533 405.43822,593.4177 c -1.4078,23.7986 2.34634,45.58604 4.0223,60.66966 0.26815,2.48042 0.60335,4.96084 0.93854,7.50829 0.13407,0.80446 0.20111,1.67596 0.33519,2.54746 0.26815,1.74299 0.46927,3.48599 0.73742,5.22898 0.13408,1.07262 0.33519,2.07819 0.46927,3.1508 0.26815,1.60892 0.5363,3.21784 0.80446,4.82676 0.20111,1.13965 0.40223,2.2793 0.60334,3.35192 0.26816,1.60891 0.60335,3.21783 0.8715,4.75971 0.20112,1.13966 0.46927,2.34634 0.67038,3.55303 0.33519,1.60892 0.67039,3.28488 1.00558,4.96084 0.26815,1.13965 0.46927,2.2793 0.73742,3.48599 0.53631,2.61449 1.20669,5.29603 1.81003,7.97756 0.33519,1.34076 0.67039,2.74857 1.00558,4.08933 0.40223,1.54188 0.73742,3.01673 1.13965,4.55861 0.40223,1.54188 0.80446,3.08376 1.27373,4.69268 0.33519,1.34076 0.73742,2.68153 1.07261,4.0223 0.46927,1.60891 0.93854,3.28487 1.4078,4.96083 0.33519,1.27373 0.73742,2.54746 1.13965,3.75414 0.53631,1.743 1.07262,3.55303 1.60892,5.29603 0.40223,1.13965 0.73742,2.2793 1.13965,3.41895 0.60335,1.87708 1.20669,3.82119 1.87708,5.69826 0.26815,0.80446 0.5363,1.60892 0.87149,2.41338 2.48042,7.24013 5.22899,14.61435 8.24572,21.98856 0.26815,0.67038 0.5363,1.4078 0.80445,2.07819 0.93854,2.21226 1.87708,4.49156 2.81561,6.70383 0.40223,0.87149 0.73742,1.67595 1.07262,2.54745 1.00557,2.2793 2.01114,4.49157 3.01672,6.77087 0.33519,0.80446 0.73742,1.60892 1.07261,2.41338 1.07261,2.34634 2.21227,4.75972 3.35192,7.10606 0.26815,0.5363 0.5363,1.07261 0.80446,1.60892 5.4301,11.19539 11.53058,22.45783 18.30145,33.85434 0.26815,0.40223 0.46927,0.80446 0.73745,1.20669 1.5419,2.54745 3.0837,5.16195 4.7597,7.7094 0.4022,0.60335 0.7374,1.20669 1.1396,1.87707 1.609,2.54746 3.2849,5.09491 4.8938,7.64237 0.3352,0.53631 0.7375,1.13965 1.0727,1.67596 1.81,2.68153 3.553,5.36306 5.4301,7.97755 0.067,0.13408 0.134,0.20112 0.2011,0.3352 8.1116,11.66466 17.0277,23.39636 26.6812,34.99399 0.4693,0.5363 0.9385,1.13965 1.4078,1.67595 2.0782,2.48042 4.2234,4.96084 6.3687,7.44125 0.6033,0.67039 1.2737,1.40781 1.877,2.14523 2.1453,2.48042 4.3575,4.8938 6.6368,7.37421 0.6034,0.60335 1.2067,1.27373 1.743,1.87708 2.3464,2.54745 4.7597,5.16194 7.2401,7.7094 l 0,0 c 16.3574,16.96069 34.6588,33.65322 55.1055,49.94355 0.1341,0.2011 67.5746,-103.17196 2.5475,-217.53929"
     id="path5"
     inkscape:connector-curvature="0" /><path
     d="m 547.69352,667.02575 c -14.8155,-34.32361 -44.9827,-75.75327 -106.32277,-98.61333 -12.46912,-4.62564 -24.40194,-9.38536 -35.86549,-14.21212 -0.26815,7.7094 -0.26815,15.82104 -0.13407,24.20082 l 4.69268,1.67596 c 40.02186,13.94397 90.76985,39.75371 137.62965,86.94867"
     id="path7"
     inkscape:connector-curvature="0" /><path
     d="M 640.74262,599.92042 C 674.06072,491.72061 637.86002,395.18546 598.30742,327.3427 558.82182,259.56698 471.13572,207.67934 414.22024,186.4282 357.37176,165.2441 293.35019,118.78656 293.35019,118.78656 c -1.60892,-1.07261 -3.21784,-2.21226 -4.82676,-3.28488 -0.67038,-0.46926 -1.34076,-0.93853 -2.01115,-1.4078 -0.87149,-0.60334 -1.74299,-1.27373 -2.61449,-1.87707 -0.73742,-0.53631 -1.4078,-1.07261 -2.14522,-1.54188 -0.80446,-0.53631 -1.54189,-1.13965 -2.27931,-1.67596 -0.67038,-0.53631 -1.34076,-1.00557 -2.07818,-1.54188 -0.73743,-0.53631 -1.47485,-1.13965 -2.21227,-1.67596 -0.60334,-0.46927 -1.27373,-0.93853 -1.87707,-1.47484 -0.73742,-0.60335 -1.47484,-1.20669 -2.2793,-1.81003 -0.53631,-0.46927 -1.13965,-0.93854 -1.67596,-1.34077 -0.80446,-0.60335 -1.54188,-1.273733 -2.34634,-1.944113 -0.46927,-0.40223 -0.93854,-0.80446 -1.47484,-1.20669 -0.8715,-0.73742 -1.743,-1.47484 -2.54746,-2.21226 -0.33519,-0.26816 -0.67038,-0.60335 -1.07261,-0.8715 -1.13965,-1.00558 -2.21226,-1.94411 -3.28488,-2.94969 -24.67009,-22.25671 -37.74256,-42.837472 -57.38478,-66.971262 -7.97756,17.16181 -15.01658,39.217412 -20.17853,64.557882 7.57533,13.407663 29.29574,46.189393 77.69739,82.255993 0.93854,0.73743 1.87707,1.40781 2.88265,2.14523 1.13965,0.80446 2.2793,1.67596 3.48599,2.54745 1.07261,0.73743 2.14522,1.54189 3.21784,2.27931 1.13965,0.80446 2.2793,1.60892 3.48599,2.41338 1.4078,0.93853 2.81561,1.94411 4.29045,2.88264 1.47484,1.00558 3.01672,2.01115 4.5586,3.01673 1.60892,1.07261 3.21784,2.14522 4.8938,3.1508 1.07261,0.67038 2.21226,1.4078 3.28487,2.07818 1.54189,0.93854 3.08377,1.94411 4.69269,2.88265 1.07261,0.67038 2.14522,1.27373 3.21783,1.94411 2.21227,1.34077 4.49157,2.68153 6.77087,3.95526 0.80446,0.46927 1.60892,0.93854 2.41338,1.34077 2.34634,1.34076 4.82676,2.74857 7.24014,4.08933 1.00557,0.53631 2.01115,1.13965 3.08376,1.67596 2.07819,1.13965 4.15637,2.21226 6.23456,3.35191 1.00557,0.53631 2.01115,1.07262 3.01672,1.60892 3.01673,1.54188 6.03345,3.08377 9.18425,4.62565 0.13408,0.067 0.33519,0.13407 0.46927,0.26815 3.08376,1.54188 6.3016,3.08376 9.51944,4.5586 1.00557,0.46927 2.01115,0.93854 3.08376,1.40781 2.48042,1.13965 5.02787,2.2793 7.57533,3.41895 1.07261,0.46927 2.07818,0.93854 3.1508,1.4078 3.55303,1.54189 7.10606,3.08377 10.72612,4.62565 11.53059,4.82675 46.52458,19.03887 46.85977,19.17295 l 43.37378,17.63107 -44.9827,-12.87135 c -1.54188,-0.46927 -37.13921,-10.65909 -49.07203,-15.01658 -3.28488,-1.20669 -6.56975,-2.41338 -9.72055,-3.68711 -1.00558,-0.40223 -1.94411,-0.73742 -2.88265,-1.13965 -2.21226,-0.87149 -4.49157,-1.74299 -6.63679,-2.68153 -1.07261,-0.40223 -2.14523,-0.8715 -3.1508,-1.27373 -2.2793,-0.93853 -4.49157,-1.87707 -6.70383,-2.8156 -0.80446,-0.3352 -1.60892,-0.67039 -2.41338,-1.00558 -2.94968,-1.27373 -5.76529,-2.54745 -8.5809,-3.82118 -0.73742,-0.33519 -1.47484,-0.67038 -2.21227,-1.00558 -2.07818,-0.93853 -4.15637,-1.94411 -6.16752,-2.88264 -1.00557,-0.46927 -2.01115,-1.00558 -3.08376,-1.47485 -1.743,-0.87149 -3.48599,-1.74299 -5.22899,-2.54745 -1.00557,-0.46927 -2.01115,-1.00558 -2.94968,-1.47484 -1.94411,-1.00558 -3.88822,-2.01115 -5.7653,-3.01673 -0.73742,-0.40223 -1.47484,-0.73742 -2.21226,-1.13965 -2.2793,-1.20669 -4.62564,-2.48041 -6.83791,-3.75414 -1.00557,-0.53631 -2.01115,-1.13965 -3.01672,-1.67596 -1.4078,-0.80446 -2.74857,-1.60892 -4.15637,-2.34634 -1.07262,-0.60334 -2.14523,-1.27373 -3.1508,-1.87707 -1.27373,-0.73742 -2.54746,-1.54188 -3.82119,-2.2793 -1.00557,-0.60335 -2.01115,-1.20669 -3.01672,-1.81004 -1.743,-1.07261 -3.48599,-2.14522 -5.16195,-3.21784 -1.20669,-0.80446 -2.41338,-1.54188 -3.62007,-2.34634 -1.13965,-0.73742 -2.2793,-1.47484 -3.35191,-2.21226 -1.00558,-0.67038 -2.07819,-1.34077 -3.08376,-2.07819 -43.91009,-29.96612 -68.17795,-59.8652 -80.78115,-79.6415 -5.16195,33.11692 -7.24014,70.79245 -4.49157,110.34504 27.75386,24.93825 70.39021,56.64736 129.78615,83.26157 0.26815,0.13407 0.46926,0.20111 0.73742,0.33519 2.74857,1.20669 5.49714,2.41338 8.31275,3.62007 0.40223,0.20111 0.80446,0.33519 1.27372,0.5363 6.03345,2.54746 12.20097,5.02787 18.56961,7.50829 0.80446,0.26815 1.54188,0.60335 2.34634,0.93854 2.41338,0.8715 4.75972,1.81003 7.24014,2.68153 0.8715,0.33519 1.74299,0.67038 2.68153,1.00557 3.21784,1.13966 6.43568,2.27931 9.65351,3.35192 6.10049,2.07819 24.20083,8.51386 24.40194,8.5809 l 22.52487,7.97756 -23.66452,-3.1508 c -0.80446,-0.13408 -20.17852,-2.68153 -26.74828,-4.29045 -4.49156,-1.07262 -8.84905,-2.21227 -13.1395,-3.41896 -1.00558,-0.26815 -2.01115,-0.5363 -3.01673,-0.80446 -3.95526,-1.07261 -7.84348,-2.2793 -11.59762,-3.41895 -1.34077,-0.40223 -2.68153,-0.8715 -4.08934,-1.27373 -2.61449,-0.87149 -5.22898,-1.74299 -7.84348,-2.61449 -2.54745,-0.8715 -5.09491,-1.743 -7.57533,-2.68153 -1.87707,-0.67038 -3.6871,-1.34077 -5.56417,-2.01115 -2.07819,-0.80446 -4.22342,-1.60892 -6.3016,-2.41338 -0.80446,-0.33519 -1.60892,-0.67038 -2.48042,-1.00557 -1.81004,-0.73742 -3.62007,-1.47485 -5.4301,-2.21227 0,0 0,0 0,0 -46.52458,-19.50814 -81.9208,-44.17824 -107.79759,-66.97126 3.41896,28.62536 9.38537,57.98813 18.70369,86.94868 2.21226,6.97198 4.69268,13.74285 7.30717,20.37964 29.83205,13.74285 64.42381,26.34605 103.57417,35.1951 6.43568,1.47485 24.06675,5.89937 28.02201,6.90495 0.46927,0.13407 0.80446,0.20111 0.80446,0.20111 l 25.74271,6.56976 -26.54717,-1.60892 c -0.93854,-0.067 -22.52487,-1.40781 -29.89908,-2.41338 -34.45768,-4.8938 -65.42938,-13.74285 -92.84804,-24.40194 43.97712,91.70839 125.96496,143.32788 236.10888,184.42235 125.49566,46.79273 129.85316,167.8639 129.85316,167.8639 0,0 1.676,-1.27373 4.6257,-4.22342 1.6759,-1.60891 3.553,-3.48599 5.4971,-5.63121 11.3965,-13.34062 31.7762,-43.44082 51.3513,-103.50713 0.1341,-0.46927 0.3352,-0.93854 0.4693,-1.40781 0.7374,-2.88264 1.6089,-5.63121 2.4804,-8.44682"
     id="path9"
     inkscape:connector-curvature="0" /></svg>