<?xml version="1.0" encoding="utf-8"?>
<!-- Generator: Adobe Illustrator 19.0.0, SVG Export Plug-In . SVG Version: 6.00 Build 0)  -->
<svg version="1.1" id="Ebene_1" xmlns="http://www.w3.org/2000/svg" xmlns:xlink="http://www.w3.org/1999/xlink" x="0px" y="0px"
	 viewBox="25 -97 97.8 222" style="enable-background:new 25 -97 97.8 222;" xml:space="preserve">
<style type="text/css">
	.st0{clip-path:url(#SVGID_2_);fill:url(#SVGID_3_);}
	.st1{clip-path:url(#SVGID_5_);fill:url(#SVGID_6_);}
	.st2{clip-path:url(#SVGID_8_);fill:url(#SVGID_9_);}
	.st3{clip-path:url(#SVGID_11_);fill:url(#SVGID_12_);}
	.st4{clip-path:url(#SVGID_14_);fill:url(#SVGID_15_);}
	.st5{clip-path:url(#SVGID_17_);fill:url(#SVGID_18_);}
	.st6{clip-path:url(#SVGID_20_);fill:url(#SVGID_21_);}
	.st7{clip-path:url(#SVGID_23_);fill:url(#SVGID_24_);}
	.st8{clip-path:url(#SVGID_26_);fill:url(#SVGID_27_);}
	.st9{clip-path:url(#SVGID_29_);fill:url(#SVGID_30_);}
	.st10{clip-path:url(#SVGID_32_);fill:url(#SVGID_33_);}
</style>
<g>
	<g>
		<g>
			<defs>
				<path id="SVGID_1_" d="M26.3-47.2c1.8,3.1,8.7,13.4,28.1,21.5c1.7,0.7,6.9,2.8,7,2.9l6.5,2.6l-6.7-1.9c-0.2-0.1-5.5-1.6-7.3-2.2
					c-17.3-6.3-25-15.1-28-19.9c-0.8,4.9-1.1,10.6-0.7,16.5c5.2,4.7,14,11,26.9,15.4c0.9,0.3,3.6,1.3,3.6,1.3l3.4,1.2l-3.5-0.5
					c-0.1,0-3-0.4-4-0.6c-12.1-2.9-20.5-8.4-26.1-13.3c0.5,4.3,1.4,8.6,2.8,13c0.3,1,0.7,2.1,1.1,3c4.4,2,9.6,3.9,15.4,5.2
					c1.1,0.2,4.3,1.1,4.3,1.1l3.8,1l-4-0.2c-0.1,0-3.4-0.2-4.5-0.4c-5.1-0.7-9.8-2-13.9-3.6c6.6,13.7,18.8,21.4,35.2,27.5
					c18.7,7,19.4,25,19.4,25s5.1-3.8,9.6-18.4c5-16.1-0.4-30.5-6.3-40.7c-5.9-10.1-19-17.9-27.5-21c-8.5-3.2-18-10.1-18-10.1
					c-7.5-5-9.7-9-13.7-14C28.1-54.4,27-51,26.3-47.2"/>
			</defs>
			<clipPath id="SVGID_2_">
				<use xlink:href="#SVGID_1_"  style="overflow:visible;"/>
			</clipPath>
			
				<linearGradient id="SVGID_3_" gradientUnits="userSpaceOnUse" x1="-387.301" y1="-177.9214" x2="-386.301" y2="-177.9214" gradientTransform="matrix(72.6614 90.6962 90.6962 -72.6614 44302.5391 22146.043)">
				<stop  offset="0" style="stop-color:#7CC099"/>
				<stop  offset="0.1296" style="stop-color:#7CC099"/>
				<stop  offset="0.3825" style="stop-color:#6FB494"/>
				<stop  offset="0.8506" style="stop-color:#4C9588"/>
				<stop  offset="1" style="stop-color:#408A83"/>
			</linearGradient>
			<polygon class="st0" points="70.4,-93.5 150.6,6.5 54,83.9 -26.1,-16.2 			"/>
		</g>
	</g>
</g>
<g>
	<g>
		<g>
			<defs>
				<path id="SVGID_4_" d="M111-15.9c-5.1,1.7-6.1,8.1-6.5,10.9c-0.6,4.3,0.4,10.9,2.8,17.6c0,0,2.2-0.2,6.2-3.2
					c4.9-3.6,6.9-7.8,8.5-12.5c0.7-2.1,1.3-5,0.3-8.1c-0.7-2.1-4.8-5.1-8.9-5.1C112.5-16.2,111.7-16.1,111-15.9"/>
			</defs>
			<clipPath id="SVGID_5_">
				<use xlink:href="#SVGID_4_"  style="overflow:visible;"/>
			</clipPath>
			
				<linearGradient id="SVGID_6_" gradientUnits="userSpaceOnUse" x1="-384.9475" y1="-192.5557" x2="-383.9475" y2="-192.5557" gradientTransform="matrix(-16.9952 -4.4874 -4.4874 16.9952 -7285.3203 1545.2502)">
				<stop  offset="0" style="stop-color:#DBE6E0"/>
				<stop  offset="1" style="stop-color:#BCDED3"/>
			</linearGradient>
			<polygon class="st1" points="121.9,17.4 96.7,10.6 105.1,-21 130.3,-14.4 			"/>
		</g>
	</g>
</g>
<g>
	<g>
		<g>
			<defs>
				<path id="SVGID_7_" d="M97.1-22c-4.6,1.1-7,3.6-10.9,6.9c0.8,1.1,1.6,2.2,2.2,3.3c4.6,8,9,18.6,8.2,30.6c3-5,9.7-6.1,10.6-6.2
					c-2.4-6.7-3.4-13.3-2.8-17.6c0.4-2.8,1.4-9.2,6.5-10.9c4.2-1.4,9.3,1.5,10.8,3.9c-1.5-3.9-5.6-6.6-9-8.3
					c-3.1-1.6-6.8-2.4-10.3-2.4C100.7-22.6,98.8-22.4,97.1-22"/>
			</defs>
			<clipPath id="SVGID_8_">
				<use xlink:href="#SVGID_7_"  style="overflow:visible;"/>
			</clipPath>
			
				<linearGradient id="SVGID_9_" gradientUnits="userSpaceOnUse" x1="-391.4576" y1="-179.4893" x2="-390.4577" y2="-179.4893" gradientTransform="matrix(-8.2783 41.4291 41.4291 8.2783 4303.5146 17681.5293)">
				<stop  offset="0" style="stop-color:#7CC099"/>
				<stop  offset="0.2568" style="stop-color:#78BC98"/>
				<stop  offset="0.5165" style="stop-color:#6CB193"/>
				<stop  offset="0.7767" style="stop-color:#589F8C"/>
				<stop  offset="1" style="stop-color:#408A83"/>
			</linearGradient>
			<polygon class="st2" points="129.8,-21 120.4,25.6 78.3,17.1 87.6,-29.4 			"/>
		</g>
	</g>
</g>
<g>
	<g>
		<g>
			<defs>
				<path id="SVGID_10_" d="M112.3,10.1c0.1,0,0.1-0.1,0.1-0.1C112.4,10.1,112.3,10.1,112.3,10.1"/>
			</defs>
			<clipPath id="SVGID_11_">
				<use xlink:href="#SVGID_10_"  style="overflow:visible;"/>
			</clipPath>
			
				<linearGradient id="SVGID_12_" gradientUnits="userSpaceOnUse" x1="-662.4304" y1="-1719.5708" x2="-661.4321" y2="-1719.5708" gradientTransform="matrix(-0.1475 0 0 0.1475 14.6891 263.7367)">
				<stop  offset="0" style="stop-color:#DBE6E0"/>
				<stop  offset="1" style="stop-color:#BCDED3"/>
			</linearGradient>
			<rect x="112.3" y="10.1" class="st3" width="0.1" height="0.1"/>
		</g>
	</g>
</g>
<g>
	<g>
		<g>
			<defs>
				<path id="SVGID_13_" d="M121.9-6c-1.5,4.9-1.8,7.1-6.1,12.9c-1,1.3-2.2,2.4-3.4,3.2c0.3-0.2,0.6-0.4,1-0.7
					c4.9-3.6,6.9-7.8,8.5-12.5c0.7-2.1,1.3-5,0.3-8.1c-0.1-0.2-0.2-0.5-0.4-0.8C122.5-10.2,122.6-8.2,121.9-6"/>
			</defs>
			<clipPath id="SVGID_14_">
				<use xlink:href="#SVGID_13_"  style="overflow:visible;"/>
			</clipPath>
			
				<linearGradient id="SVGID_15_" gradientUnits="userSpaceOnUse" x1="-389.9618" y1="-201.5432" x2="-388.9617" y2="-201.5432" gradientTransform="matrix(-10.2578 0 0 10.2578 -3877.4841 2066.4897)">
				<stop  offset="0" style="stop-color:#DBE6E0"/>
				<stop  offset="1" style="stop-color:#BCDED3"/>
			</linearGradient>
			<rect x="112.4" y="-11.9" class="st4" width="10.7" height="22.1"/>
		</g>
	</g>
</g>
<g>
	<g>
		<g>
			<defs>
				<path id="SVGID_16_" d="M107.3,12.6c0,0,0,0-0.1,0l0,0c0,0,1.7-0.2,4.8-2.3C109.6,12,107.3,12.6,107.3,12.6 M112.1,10.4
					c0.1,0,0.1-0.1,0.2-0.1C112.2,10.2,112.1,10.2,112.1,10.4"/>
			</defs>
			<clipPath id="SVGID_17_">
				<use xlink:href="#SVGID_16_"  style="overflow:visible;"/>
			</clipPath>
			
				<linearGradient id="SVGID_18_" gradientUnits="userSpaceOnUse" x1="-394.0909" y1="-224.5014" x2="-393.0909" y2="-224.5014" gradientTransform="matrix(-5.0391 0 0 5.0391 -1873.6146 1142.6351)">
				<stop  offset="0" style="stop-color:#DBE6E0"/>
				<stop  offset="1" style="stop-color:#BCDED3"/>
			</linearGradient>
			<rect x="107.2" y="10.1" class="st5" width="5" height="2.4"/>
		</g>
	</g>
</g>
<g>
	<g>
		<g>
			<defs>
				<path id="SVGID_19_" d="M110.2-6.1c-0.2,0.3-0.3,0.6-0.4,0.9c-0.4,1.6,0.5,3.3,2.2,3.7c0.7,0.2,1.3,0.1,1.9-0.1
					C113,5.2,108,10.8,107,11.9c0.1,0.4,0.2,0.5,0.2,0.7c0.3,0,0.4-0.1,0.9-0.2c1.7-1.9,6.7-7.9,7-15.5c0.4-1.6-0.6-3.3-2.2-3.7
					C112.6-7,112.4-7,112.1-7C111.5-6.9,110.8-6.6,110.2-6.1"/>
			</defs>
			<clipPath id="SVGID_20_">
				<use xlink:href="#SVGID_19_"  style="overflow:visible;"/>
			</clipPath>
			
				<linearGradient id="SVGID_21_" gradientUnits="userSpaceOnUse" x1="-381.1023" y1="-152.0212" x2="-380.1022" y2="-152.0212" gradientTransform="matrix(8.2831 0 0 -8.2831 3263.6821 -1256.4071)">
				<stop  offset="0" style="stop-color:#6AA583"/>
				<stop  offset="1" style="stop-color:#4C9E96"/>
			</linearGradient>
			<rect x="107" y="-6.9" class="st6" width="8.6" height="19.5"/>
		</g>
	</g>
</g>
<g>
	<g>
		<g>
			<defs>
				<path id="SVGID_22_" d="M60.3,37c1.5,12.7,7.5,31.7,27.8,47.9c0,0,10.1-15.4,0.4-32.5S64.7,29.6,59.7,27.9
					C59.5,31.5,60.1,34.6,60.3,37"/>
			</defs>
			<clipPath id="SVGID_23_">
				<use xlink:href="#SVGID_22_"  style="overflow:visible;"/>
			</clipPath>
			
				<linearGradient id="SVGID_24_" gradientUnits="userSpaceOnUse" x1="-393.4319" y1="-185.7635" x2="-392.4319" y2="-185.7635" gradientTransform="matrix(-18.272 14.6382 14.6382 18.272 -4382.3047 9203.001)">
				<stop  offset="0" style="stop-color:#7CC099"/>
				<stop  offset="1" style="stop-color:#57BAAE"/>
			</linearGradient>
			<polygon class="st7" points="126,62.6 74.6,103.6 31.7,50.1 83.1,9 			"/>
		</g>
	</g>
</g>
<g>
	<g>
		<g>
			<defs>
				<path id="SVGID_25_" d="M60.3,37c1.2,10.8,5.8,26.1,19.6,40.4c2.4-5.5,5.5-16.8-1.4-29c-5.7-10-12.8-16.8-18.8-20.5
					C59.6,31.1,60.1,34.9,60.3,37"/>
			</defs>
			<clipPath id="SVGID_26_">
				<use xlink:href="#SVGID_25_"  style="overflow:visible;"/>
			</clipPath>
			
				<linearGradient id="SVGID_27_" gradientUnits="userSpaceOnUse" x1="-384.494" y1="-169.8449" x2="-383.494" y2="-169.8449" gradientTransform="matrix(23.8131 0.5407 0.5407 -23.8131 9306.9561 -3784.3408)">
				<stop  offset="0" style="stop-color:#7CC099"/>
				<stop  offset="0.2326" style="stop-color:#76BA97"/>
				<stop  offset="0.55" style="stop-color:#64AB90"/>
				<stop  offset="0.9148" style="stop-color:#489186"/>
				<stop  offset="1" style="stop-color:#408A83"/>
			</linearGradient>
			<polygon class="st8" points="59.6,27.2 86.5,27.9 85.4,78 58.5,77.4 			"/>
		</g>
	</g>
</g>
<g>
	<g>
		<g>
			<defs>
				<path id="SVGID_28_" d="M59.7,27.9c4.4,1.6,16.1,6.2,25.5,19.3c0-0.1,0-0.2,0-0.3c-0.2-2.3-1.1-18.2-18.5-24.7
					c-2-0.8-4.9-1.6-6.8-2.4C59.6,22.2,59.7,24.9,59.7,27.9"/>
			</defs>
			<clipPath id="SVGID_29_">
				<use xlink:href="#SVGID_28_"  style="overflow:visible;"/>
			</clipPath>
			
				<linearGradient id="SVGID_30_" gradientUnits="userSpaceOnUse" x1="-367.1649" y1="-168.6577" x2="-366.1649" y2="-168.6577" gradientTransform="matrix(6.8356 -8.1464 -8.1464 -6.8356 1205.7341 -4107.5444)">
				<stop  offset="0" style="stop-color:#4C9E96"/>
				<stop  offset="0.4863" style="stop-color:#489790"/>
				<stop  offset="1" style="stop-color:#408A83"/>
			</linearGradient>
			<polygon class="st9" points="46.1,35.9 70.2,7.1 98.7,31.1 74.6,59.8 			"/>
		</g>
	</g>
</g>
<g>
	<g>
		<g>
			<defs>
				<path id="SVGID_31_" d="M37.4-35.4c4.2,3.2,9.7,6.5,16.9,9.5c1.7,0.7,6.9,2.8,7,2.9l6.5,2.6l-6.7-1.9c-0.2-0.1-5.5-1.6-7.3-2.2
					C47-27,41.7-29.8,37.6-32.7c0.4,5,1.3,10.1,2.9,15.2c3.4,1.8,7.2,3.4,11.6,4.9c0.9,0.3,3.6,1.3,3.6,1.3l3.4,1.2l-3.5-0.5
					c-0.1,0-3-0.4-4-0.6c-3.7-0.9-7-2-10-3.3C43.5-9.7,46-5.7,49-2.2c0.1,0,0.1,0,0.1,0l3.8,1l-3.2-0.2C56.6,6.3,66,11.9,76,19.9
					c13.5,10.8,9.2,27.2,9.2,27.2s0.8-0.6,1.5-1.5c1.8-2.1,5.1-7,8.1-16.9c5-16.1-0.4-30.5-6.3-40.7c-5.9-10.1-19-17.9-27.5-21
					c-8.5-3.2-18-10.1-18-10.1c-2.1-1.4-3.8-2.7-5.2-4C37.4-43.4,37.2-39.4,37.4-35.4"/>
			</defs>
			<clipPath id="SVGID_32_">
				<use xlink:href="#SVGID_31_"  style="overflow:visible;"/>
			</clipPath>
			
				<linearGradient id="SVGID_33_" gradientUnits="userSpaceOnUse" x1="-390.085" y1="-181.7712" x2="-389.085" y2="-181.7712" gradientTransform="matrix(-31.8588 36.2641 36.2641 31.8588 -5751.5312 19919.1895)">
				<stop  offset="0" style="stop-color:#7CC099"/>
				<stop  offset="0.3184" style="stop-color:#77BF9C"/>
				<stop  offset="0.6751" style="stop-color:#6ABDA3"/>
				<stop  offset="1" style="stop-color:#57BAAE"/>
			</linearGradient>
			<polygon class="st10" points="146.5,-5.9 72.5,78.1 -9.4,6.1 64.5,-77.9 			"/>
		</g>
	</g>
</g>
</svg>
